<?xml version="1.0" encoding="UTF-8" standalone="no"?>
<!-- Created with Inkscape (http://www.inkscape.org/) -->

<svg
   xmlns:dc="http://purl.org/dc/elements/1.1/"
   xmlns:cc="http://creativecommons.org/ns#"
   xmlns:rdf="http://www.w3.org/1999/02/22-rdf-syntax-ns#"
   xmlns:svg="http://www.w3.org/2000/svg"
   xmlns="http://www.w3.org/2000/svg"
   xmlns:xlink="http://www.w3.org/1999/xlink"
   xmlns:sodipodi="http://sodipodi.sourceforge.net/DTD/sodipodi-0.dtd"
   xmlns:inkscape="http://www.inkscape.org/namespaces/inkscape"
   id="svg53383"
   sodipodi:docname="Settings.svg"
   height="48px"
   sodipodi:version="0.32"
   width="48px"
   version="1.1"
   inkscape:version="0.92.1 r15371">
  <defs
     id="defs3">
    <linearGradient
       inkscape:collect="always"
       id="linearGradient4504">
      <stop
         style="stop-color:#184375;stop-opacity:1;"
         offset="0"
         id="stop4500" />
      <stop
         style="stop-color:#184375;stop-opacity:0;"
         offset="1"
         id="stop4502" />
    </linearGradient>
    <radialGradient
       inkscape:collect="always"
       xlink:href="#linearGradient4504"
       id="radialGradient4508"
       cx="23.874901"
       cy="23.374985"
       fx="23.874901"
       fy="23.374985"
       r="22.9291"
       gradientTransform="matrix(1,0,0,1.0000835,0,-0.00195242)"
       gradientUnits="userSpaceOnUse" />
  </defs>
  <sodipodi:namedview
     id="base"
     bordercolor="#666666"
     pagecolor="#ffffff"
     showgrid="false"
     borderopacity="0.11764706"
     inkscape:zoom="6.9532167"
     inkscape:cx="27.488911"
     inkscape:cy="13.349329"
     inkscape:window-width="1920"
     inkscape:window-height="1018"
     inkscape:window-x="1912"
     inkscape:window-y="-8"
     inkscape:window-maximized="1"
     inkscape:current-layer="svg53383" />
  <metadata
     id="metadata4">
    <rdf:RDF>
      <cc:Work
         rdf:about="">
        <dc:format>image/svg+xml</dc:format>
        <dc:type
           rdf:resource="http://purl.org/dc/dcmitype/StillImage" />
        <dc:title>System Applications</dc:title>
        <dc:creator>
          <cc:Agent>
            <dc:title>Jakub Steiner</dc:title>
          </cc:Agent>
        </dc:creator>
        <dc:source>http://jimmac.musichall.cz/</dc:source>
        <dc:subject>
          <rdf:Bag>
            <rdf:li>system</rdf:li>
            <rdf:li>applications</rdf:li>
            <rdf:li>group</rdf:li>
            <rdf:li>category</rdf:li>
            <rdf:li>admin</rdf:li>
            <rdf:li>root</rdf:li>
          </rdf:Bag>
        </dc:subject>
        <cc:license
           rdf:resource="http://creativecommons.org/licenses/by/2.0/" />
      </cc:Work>
      <cc:License
         rdf:about="http://creativecommons.org/licenses/by/2.0/">
        <cc:permits
           rdf:resource="http://web.resource.org/cc/Reproduction" />
        <cc:permits
           rdf:resource="http://web.resource.org/cc/Distribution" />
        <cc:requires
           rdf:resource="http://web.resource.org/cc/Notice" />
        <cc:requires
           rdf:resource="http://web.resource.org/cc/Attribution" />
        <cc:permits
           rdf:resource="http://web.resource.org/cc/DerivativeWorks" />
        <cc:requires
           rdf:resource="http://web.resource.org/cc/ShareAlike" />
      </cc:License>
    </rdf:RDF>
  </metadata>
  <path
     inkscape:connector-curvature="0"
     d="M 22.7,0.94747 C 22.226,0.97985 21.766,1.0531 21.302,1.1063 H 21.27 l -1.112,6.068 c -1.812,0.4127 -3.517,1.1132 -5.051,2.065 l -4.988,-3.59 C 8.7705,6.6961 7.5436,7.917 6.4654,9.2393 l 3.4628,5.0517 c -1.0514,1.606 -1.842,3.441 -2.2874,5.369 v 0.031 l -6.0361,0.953 c -0.1104,0.902 -0.1589,1.833 -0.1589,2.764 0,0.762 0.021,1.514 0.0953,2.256 l 6.0362,1.08 C 8.0066,28.84 8.8221,30.798 9.96,32.526 L 6.3701,37.45 c 1.0281,1.277 2.2151,2.439 3.4946,3.463 l 5.0833,-3.494 c 1.776,1.133 3.759,1.928 5.909,2.319 l 0.953,6.004 c 0.677,0.062 1.372,0.064 2.065,0.064 0.979,0 1.914,-0.037 2.859,-0.159 l 1.144,-6.132 c 2.041,-0.507 3.958,-1.389 5.623,-2.573 l 4.893,3.558 c 1.268,-1.079 2.429,-2.32 3.431,-3.653 L 38.267,31.7 c 0.963,-1.664 1.631,-3.5 1.969,-5.464 l 6.005,-0.953 c 0.052,-0.627 0.063,-1.234 0.063,-1.875 0,-1.112 -0.129,-2.203 -0.286,-3.272 l -6.099,-1.112 c -0.478,-1.765 -1.263,-3.412 -2.256,-4.892 l 3.59,-4.9245 C 40.14,7.8467 38.871,6.5895 37.472,5.5223 L 32.294,9.0804 C 30.806,8.2002 29.204,7.5248 27.465,7.1425 L 26.512,1.1063 C 25.644,1.0043 24.77,0.94747 23.875,0.94747 c -0.242,0 -0.491,-0.00761 -0.731,0 -0.117,0.00371 -0.232,-0.00681 -0.349,0 -0.032,0.00184 -0.064,-0.00216 -0.095,0 z m 0.826,15.44 c 0.116,-0.006 0.231,0 0.349,0 3.761,0 6.83,3.07 6.83,6.831 0,3.76 -3.069,6.798 -6.83,6.798 -3.761,0 -6.799,-3.038 -6.799,-6.798 0,-3.643 2.852,-6.648 6.45,-6.831 z"
     style="color:#000000;fill:url(#radialGradient4508);stroke:#3f4561;stroke-linecap:round;stroke-linejoin:round;fill-opacity:1"
     id="path3243"
     inkscape:export-xdpi="66.983513"
     inkscape:export-ydpi="66.983513" />
</svg>
